<svg style='width:80%;height:auto;font-size:100%;font-family:inherit;margin:10px 0 10px 0;' xmlns='http://www.w3.org/2000/svg' class="pikchr  unnamed-chunk-1" viewBox="0 0 734.123 75.1861">
<path d="M16.3332,73.0261L158.066,73.0261A14.1732 14.1732 0 0 0 172.239 58.8529L172.239,16.3332A14.1732 14.1732 0 0 0 158.066 2.16L16.3332,2.16A14.1732 14.1732 0 0 0 2.16 16.3332L2.16,58.8529A14.1732 14.1732 0 0 0 16.3332 73.0261Z"  style="fill:rgb(68,175,105);" />
<text lengthAdjust="spacingAndGlyphs"  x="87.1994" y="37.5931" text-anchor="middle" font-size="125%" dominant-baseline="central">Transparência</text>
<path d="M197.751,73.0261L339.483,73.0261A14.1732 14.1732 0 0 0 353.656 58.8529L353.656,16.3332A14.1732 14.1732 0 0 0 339.483 2.16L197.751,2.16A14.1732 14.1732 0 0 0 183.577 16.3332L183.577,58.8529A14.1732 14.1732 0 0 0 197.751 73.0261Z"  style="fill:rgb(248,51,60);" />
<text x="268.617" y="37.5931" text-anchor="middle" font-size="125%" dominant-baseline="central">Eficiência</text>
<path d="M379.168,73.0261L520.9,73.0261A14.1732 14.1732 0 0 0 535.073 58.8529L535.073,16.3332A14.1732 14.1732 0 0 0 520.9 2.16L379.168,2.16A14.1732 14.1732 0 0 0 364.995 16.3332L364.995,58.8529A14.1732 14.1732 0 0 0 379.168 73.0261Z"  style="fill:rgb(252,171,16);" />
<text x="450.034" y="24.9931" text-anchor="middle" font-size="125%" dominant-baseline="central">Governança</text>
<text x="450.034" y="50.1931" text-anchor="middle" font-size="125%" dominant-baseline="central">Integrada</text>
<path d="M560.585,73.0261L702.317,73.0261A14.1732 14.1732 0 0 0 716.491 58.8529L716.491,16.3332A14.1732 14.1732 0 0 0 702.317 2.16L560.585,2.16A14.1732 14.1732 0 0 0 546.412 16.3332L546.412,58.8529A14.1732 14.1732 0 0 0 560.585 73.0261Z"  style="fill:rgb(43,158,179);" />
<text x="631.451" y="24.9931" text-anchor="middle" font-size="125%" dominant-baseline="central">Decisões Beseadas</text>
<text x="631.451" y="50.1931" text-anchor="middle" font-size="125%" dominant-baseline="central">em Evidências</text>
</svg>

